<svg width="146" height="26" viewBox="0 0 146 26" fill="none" xmlns="http://www.w3.org/2000/svg">
<path d="M8.86119 25.2581C12.1631 25.2581 15.027 23.5397 16.4084 20.878L14.5553 19.7998C13.4771 21.754 11.4218 23.1017 8.86119 23.1017C5.12129 23.1017 2.22372 20.1705 2.22372 16.4306C2.22372 12.6907 5.12129 9.7594 8.86119 9.7594C11.3881 9.7594 13.5108 11.0734 14.4205 13.0613L16.2399 12.0168C15.027 9.35509 12.1968 7.60307 8.86119 7.60307C3.77359 7.60307 0 11.444 0 16.4306C0 21.4171 3.77359 25.2581 8.86119 25.2581Z" fill="white"/>
<path d="M19.601 24.8537H21.8247V0.258057H19.601V24.8537Z" fill="white"/>
<path d="M34.394 25.2581C39.3131 25.2581 43.2551 21.4171 43.2551 16.4306C43.2551 11.444 39.3131 7.60307 34.394 7.60307C29.4748 7.60307 25.5328 11.444 25.5328 16.4306C25.5328 21.4171 29.4748 25.2581 34.394 25.2581ZM34.394 23.1017C30.6541 23.1017 27.7565 20.1705 27.7565 16.4306C27.7565 12.6907 30.6541 9.7594 34.394 9.7594C38.1338 9.7594 41.0314 12.6907 41.0314 16.4306C41.0314 20.1705 38.1338 23.1017 34.394 23.1017Z" fill="white"/>
<path d="M54.8267 25.2581C58.1286 25.2581 60.9925 23.5397 62.3739 20.878L60.5208 19.7998C59.4426 21.754 57.3874 23.1017 54.8267 23.1017C51.0869 23.1017 48.1893 20.1705 48.1893 16.4306C48.1893 12.6907 51.0869 9.7594 54.8267 9.7594C57.3537 9.7594 59.4763 11.0734 60.386 13.0613L62.2055 12.0168C60.9925 9.35509 58.1623 7.60307 54.8267 7.60307C49.7391 7.60307 45.9656 11.444 45.9656 16.4306C45.9656 21.4171 49.7391 25.2581 54.8267 25.2581Z" fill="white"/>
<path d="M79.1784 24.8537L70.1488 16.0936L78.8415 8.00738H75.8092L67.7903 15.4535V1.26884H65.5666V24.8537H67.7903V16.7338L76.2135 24.8537H79.1784Z" fill="white"/>
<path d="M95.9442 12.4211C95.9442 10.6017 97.73 9.7594 99.482 9.7594C101.099 9.7594 102.818 10.3996 103.525 12.1179L105.378 11.0397C104.401 8.95078 102.245 7.60307 99.482 7.60307C96.1127 7.60307 93.7205 9.72571 93.7205 12.4211C93.7205 18.6206 103.559 16.2284 103.559 20.4063C103.559 22.3942 101.672 23.1017 99.6841 23.1017C97.4267 23.1017 95.6747 21.9899 95.0682 20.2715L93.1814 21.3834C94.0238 23.5397 96.3149 25.2581 99.6841 25.2581C103.289 25.2581 105.783 23.2702 105.783 20.4063C105.783 14.2068 95.9442 16.599 95.9442 12.4211Z" fill="white"/>
<path d="M117.763 10.1637V8.00738H112.911V3.2904L110.687 3.96426V8.00738H107.149V10.1637H110.687V20.3726C110.687 24.4157 113.214 25.5276 117.763 24.8537V22.8996C114.494 23.0343 112.911 23.2702 112.911 20.3726V10.1637H117.763Z" fill="white"/>
<path d="M128.232 7.60307C123.009 7.60307 119.438 11.4777 119.438 16.4306C119.438 21.5182 123.077 25.2581 128.4 25.2581C131.803 25.2581 134.398 23.6745 135.813 21.3834L133.859 20.2378C132.949 21.8551 131.096 23.1017 128.434 23.1017C124.863 23.1017 122.201 20.9791 121.729 17.5424H136.52C136.554 17.2055 136.588 16.8349 136.588 16.4979C136.588 11.882 133.387 7.60307 128.232 7.60307ZM128.232 9.7594C131.129 9.7594 133.825 11.6799 134.297 15.3861H121.729C122.167 12.0842 124.694 9.7594 128.232 9.7594Z" fill="white"/>
<path d="M142.349 10.8039V8.00738H140.125V24.8537H142.349V15.4872C142.349 11.3093 142.871 9.89417 145.566 9.89417V7.73784C143.41 7.73784 143.528 8.44539 142.349 10.8039Z" fill="white"/>
<path fill-rule="evenodd" clip-rule="evenodd" d="M87.6906 12.0168C87.6906 13.0613 86.882 13.8699 85.8375 13.8699C84.793 13.8699 83.9844 13.0613 83.9844 12.0168C83.9844 10.9723 84.793 10.1637 85.8375 10.1637C86.882 10.1637 87.6906 10.9723 87.6906 12.0168Z" fill="white"/>
<path fill-rule="evenodd" clip-rule="evenodd" d="M87.6244 20.878C87.6244 21.9225 86.8158 22.7311 85.7713 22.7311C84.7268 22.7311 83.9182 21.9225 83.9182 20.878C83.9182 19.8335 84.7268 19.0249 85.7713 19.0249C86.8158 19.0249 87.6244 19.8335 87.6244 20.878Z" fill="white"/>
</svg>
