<svg width="180" height="30" viewBox="0 0 180 30" fill="none" xmlns="http://www.w3.org/2000/svg">
<path fill-rule="evenodd" clip-rule="evenodd" d="M174.484 8.00105L172.186 5.6478L166.67 11.2956L162.304 6.82442C161.669 6.17459 160.64 6.17459 160.005 6.82442C159.371 7.47426 159.371 8.52784 160.005 9.17768L164.372 13.6489L158.856 19.2967L161.155 21.6499L166.67 16.0021L171.037 20.4733C171.672 21.1231 172.701 21.1231 173.335 20.4733C173.97 19.8235 173.97 18.7699 173.335 18.1201L168.969 13.6489L174.484 8.00105Z" fill="url(#paint0_linear)"/>
<path fill-rule="evenodd" clip-rule="evenodd" d="M19.451 29.546V4.68405H21.6606V29.546H19.451ZM8.74592 29.9603C7.39854 29.9536 6.07073 29.6321 4.86509 29.0206C3.65944 28.4092 2.60822 27.5241 1.79271 26.4339C0.977189 25.3437 0.419183 24.0775 0.161817 22.7332C-0.0955484 21.3888 -0.0453671 20.0023 0.308444 18.6808C0.662256 17.3593 1.31024 16.1382 2.20233 15.1118C3.09442 14.0855 4.20674 13.2813 5.45331 12.7615C6.69989 12.2417 8.04734 12.0202 9.39157 12.114C10.7358 12.2079 12.0408 12.6147 13.2057 13.3029C14.4784 14.056 15.4876 15.1948 16.092 16.5598L14.2819 17.6123C13.8336 16.5881 13.0771 15.735 12.1214 15.1758C11.0991 14.5654 9.93131 14.2529 8.74592 14.2725C7.87231 14.2539 7.00434 14.4187 6.19627 14.7567C5.38821 15.0946 4.65743 15.5984 4.04967 16.2366C2.82438 17.5201 2.13908 19.2382 2.13908 21.0266C2.13908 22.8151 2.82438 24.5332 4.04967 25.8167C4.7552 26.5654 5.62362 27.1354 6.5852 27.4811C7.54678 27.8267 8.57472 27.9383 9.58644 27.807C10.5982 27.6756 11.5655 27.3049 12.4107 26.7247C13.2559 26.1444 13.9554 25.3708 14.4532 24.4659L16.2958 25.5598C15.6095 26.9172 14.5501 28.0429 13.2465 28.8001C11.8777 29.5949 10.3219 29.996 8.74592 29.9603ZM34.1757 29.9646C36.5114 29.9646 38.755 29.0384 40.4292 27.383C42.0714 25.6884 42.9918 23.4052 42.9918 21.0266C42.9918 18.648 42.0714 16.3649 40.4292 14.6703C38.755 13.0149 36.5114 12.0887 34.1757 12.0887C31.84 12.0887 29.5965 13.0149 27.9222 14.6703C26.2801 16.3649 25.3596 18.648 25.3596 21.0266C25.3596 23.4052 26.2801 25.6884 27.9222 27.383C29.5965 29.0384 31.84 29.9646 34.1757 29.9646ZM34.1757 27.7789C32.4172 27.7789 30.7296 27.0738 29.4795 25.8167C28.2542 24.5332 27.5689 22.8151 27.5689 21.0266C27.5689 19.2382 28.2542 17.5201 29.4795 16.2366C30.7296 14.9795 32.4172 14.2743 34.1757 14.2743C35.9343 14.2743 37.6218 14.9795 38.872 16.2366C40.0973 17.5201 40.7826 19.2382 40.7826 21.0266C40.7826 22.8151 40.0973 24.5332 38.872 25.8167C37.6218 27.0738 35.9343 27.7789 34.1757 27.7789ZM54.4935 29.9603C53.1461 29.9536 51.8183 29.6321 50.6127 29.0206C49.407 28.4092 48.3559 27.5241 47.5403 26.4339C46.7248 25.3437 46.1668 24.0775 45.9095 22.7332C45.6521 21.3888 45.7022 20.0023 46.0561 18.6808C46.4099 17.3593 47.0578 16.1382 47.9499 15.1118C48.842 14.0855 49.9543 13.2813 51.2009 12.7615C52.4475 12.2417 53.7949 12.0202 55.1392 12.114C56.4834 12.2079 57.7884 12.6147 58.9533 13.3029C60.226 14.056 61.2352 15.1948 61.8396 16.5598L60.0295 17.6123C59.5812 16.5881 58.8247 15.735 57.869 15.1758C56.8491 14.5669 55.6843 14.2544 54.5017 14.2725C53.6281 14.2539 52.7601 14.4187 51.952 14.7567C51.144 15.0946 50.4132 15.5984 49.8054 16.2366C48.5801 17.5201 47.8949 19.2382 47.8949 21.0266C47.8949 22.8151 48.5801 24.5332 49.8054 25.8167C50.5112 26.5554 51.3766 27.1169 52.3329 27.4567C53.2893 27.7964 54.3103 27.905 55.3152 27.7739C56.32 27.6428 57.281 27.2756 58.1219 26.7014C58.9629 26.1272 59.6607 25.3618 60.16 24.4659L62.0026 25.5598C61.3163 26.9172 60.257 28.0429 58.9533 28.8001C57.5965 29.5877 56.0557 29.9885 54.4935 29.9603ZM75.7897 29.546H78.7411L69.7563 20.6785L78.4068 12.499H75.3901L67.4082 20.0321V5.67851H65.1986V29.546H67.4082V21.3332L75.7897 29.546ZM101.195 17.0073C101.19 17.3762 101.279 17.7402 101.455 18.063C101.631 18.3857 101.887 18.6561 102.198 18.847C102.949 19.338 103.776 19.6966 104.644 19.9078C105.606 20.1564 106.568 20.4327 107.53 20.7365C108.461 21.0272 109.303 21.555 109.976 22.2697C110.663 23.0343 111.024 24.0446 110.979 25.0791C110.994 25.7648 110.849 26.4444 110.554 27.0613C110.259 27.6783 109.823 28.2147 109.283 28.626C108.022 29.5797 106.475 30.0626 104.905 29.9935C103.471 30.0316 102.057 29.652 100.828 28.8995C99.757 28.246 98.9263 27.2532 98.4637 26.0736L100.339 24.9465C100.646 25.8252 101.246 26.5669 102.035 27.0432C102.92 27.5639 103.932 27.8196 104.954 27.7808C105.912 27.8148 106.861 27.5857 107.701 27.1178C108.057 26.913 108.349 26.6113 108.545 26.2467C108.741 25.8821 108.833 25.4691 108.81 25.0542C108.816 24.6853 108.726 24.3213 108.55 23.9985C108.374 23.6757 108.118 23.4054 107.807 23.2145C107.057 22.7235 106.23 22.3649 105.361 22.1537C104.399 21.9051 103.437 21.6288 102.475 21.3249C101.544 21.0364 100.701 20.5083 100.029 19.7918C99.3422 19.0272 98.9816 18.0169 99.0263 16.9824C99.0186 16.3142 99.1615 15.653 99.4442 15.0497C99.7268 14.4463 100.142 13.9168 100.657 13.5017C101.805 12.5509 103.253 12.0536 104.734 12.1012C105.991 12.0729 107.232 12.3969 108.321 13.0376C109.318 13.6266 110.115 14.5115 110.604 15.5736L108.761 16.6675C108.114 15.0763 106.772 14.2807 104.734 14.2807C103.869 14.2635 103.018 14.5056 102.288 14.9769C101.942 15.1833 101.658 15.4811 101.465 15.8387C101.273 16.1962 101.18 16.6001 101.195 17.0073ZM118.064 14.6785H122.891V12.499H118.088V7.72549L115.871 8.40504V12.499H112.349V14.6785H115.871V25.0211C115.871 26.9935 116.458 28.3332 117.632 29.0404C118.806 29.7476 120.567 29.9189 122.915 29.5543V27.5736C121.844 27.6067 120.95 27.6233 120.233 27.6233C119.934 27.6441 119.634 27.6001 119.353 27.4944C119.072 27.3887 118.816 27.2236 118.602 27.01C118.189 26.4333 117.998 25.723 118.064 25.0128V14.6785ZM133.335 12.0929C134.471 12.0538 135.601 12.2739 136.642 12.7372C137.684 13.2004 138.61 13.8949 139.352 14.7697C140.869 16.5113 141.689 18.7672 141.651 21.0929C141.651 21.3415 141.629 21.6951 141.586 22.1537H126.861C126.935 22.955 127.164 23.7336 127.535 24.4447C127.906 25.1558 128.411 25.7854 129.022 26.2973C130.301 27.3294 131.898 27.8668 133.531 27.8139C134.684 27.8358 135.822 27.5501 136.833 26.9852C137.711 26.5004 138.437 25.7737 138.928 24.8885L140.877 26.0487C140.137 27.2577 139.096 28.2468 137.86 28.9161C136.518 29.6395 135.017 30.0045 133.498 29.9769C132.314 30.0296 131.133 29.8363 130.025 29.4088C128.918 28.9814 127.908 28.3287 127.057 27.4907C126.242 26.6482 125.605 25.6455 125.184 24.544C124.764 23.4425 124.569 22.2654 124.611 21.0846C124.578 19.91 124.778 18.7407 125.198 17.6459C125.618 16.5512 126.25 15.5534 127.057 14.7117C127.867 13.856 128.844 13.1813 129.925 12.7304C131.006 12.2796 132.167 12.0624 133.335 12.0929ZM133.335 14.2724C131.747 14.2128 130.197 14.7672 128.995 15.8237C127.794 16.8802 127.031 18.3604 126.861 19.9658H139.376C139.243 18.3546 138.511 16.8553 137.33 15.7724C136.227 14.7866 134.803 14.2521 133.335 14.2724ZM149.533 12.9744C148.588 13.5268 147.828 14.3542 147.35 15.3498V12.499H145.141V29.5708H147.35V20.0901C147.35 18.1399 147.853 16.7089 148.859 15.7973C149.907 14.8708 151.262 14.3823 152.65 14.4299V12.2503C151.563 12.1697 150.477 12.4219 149.533 12.9744ZM88.4271 18.2587C89.4583 18.2587 90.2942 17.409 90.2942 16.3609C90.2942 15.3128 89.4583 14.4631 88.4271 14.4631C87.396 14.4631 86.5601 15.3128 86.5601 16.3609C86.5601 17.409 87.396 18.2587 88.4271 18.2587ZM90.2942 25.5763C90.2942 26.6245 89.4583 27.4741 88.4271 27.4741C87.396 27.4741 86.5601 26.6245 86.5601 25.5763C86.5601 24.5282 87.396 23.6786 88.4271 23.6786C89.4583 23.6786 90.2942 24.5282 90.2942 25.5763Z" fill="white"/>
<defs>
<linearGradient id="paint0_linear" x1="163.526" y1="31.4274" x2="160.425" y2="-1.33519" gradientUnits="userSpaceOnUse">
<stop stop-color="#8698FF"/>
<stop offset="1" stop-color="#3150FF"/>
</linearGradient>
</defs>
</svg>
