<svg width="560" height="67" viewBox="0 0 560 67" fill="none" xmlns="http://www.w3.org/2000/svg">
<path d="M14.1779 47C19.4609 47 24.0431 44.2507 26.2534 39.9919L23.2884 38.2668C21.5633 41.3935 18.2749 43.5499 14.1779 43.5499C8.19407 43.5499 3.55795 38.8598 3.55795 32.876C3.55795 26.8922 8.19407 22.2022 14.1779 22.2022C18.221 22.2022 21.6173 24.3046 23.0728 27.4852L25.9838 25.814C24.0431 21.5553 19.5148 18.752 14.1779 18.752C6.03774 18.752 0 24.8976 0 32.876C0 40.8544 6.03774 47 14.1779 47Z" fill="white"/>
<path d="M31.3616 46.3531H34.9196V7H31.3616V46.3531Z" fill="white"/>
<path d="M55.0303 47C62.9009 47 69.2082 40.8544 69.2082 32.876C69.2082 24.8976 62.9009 18.752 55.0303 18.752C47.1597 18.752 40.8524 24.8976 40.8524 32.876C40.8524 40.8544 47.1597 47 55.0303 47ZM55.0303 43.5499C49.0465 43.5499 44.4104 38.8598 44.4104 32.876C44.4104 26.8922 49.0465 22.2022 55.0303 22.2022C61.0142 22.2022 65.6503 26.8922 65.6503 32.876C65.6503 38.8598 61.0142 43.5499 55.0303 43.5499Z" fill="white"/>
<path d="M87.7228 47C93.0058 47 97.588 44.2507 99.7983 39.9919L96.8333 38.2668C95.1082 41.3935 91.8198 43.5499 87.7228 43.5499C81.739 43.5499 77.1028 38.8598 77.1028 32.876C77.1028 26.8922 81.739 22.2022 87.7228 22.2022C91.7659 22.2022 95.1621 24.3046 96.6177 27.4852L99.5287 25.814C97.588 21.5553 93.0597 18.752 87.7228 18.752C79.5826 18.752 73.5449 24.8976 73.5449 32.876C73.5449 40.8544 79.5826 47 87.7228 47Z" fill="white"/>
<path d="M126.685 46.3531L112.238 32.3369L126.146 19.3989H121.295L108.464 31.3127V8.61725H104.907V46.3531H108.464V33.3612L121.942 46.3531H126.685Z" fill="white"/>
<path d="M153.511 26.4609C153.511 23.5499 156.368 22.2022 159.171 22.2022C161.759 22.2022 164.508 23.2264 165.64 25.9757L168.605 24.2507C167.042 20.9084 163.592 18.752 159.171 18.752C153.78 18.752 149.953 22.1482 149.953 26.4609C149.953 36.3801 165.694 32.5526 165.694 39.2372C165.694 42.4178 162.675 43.5499 159.495 43.5499C155.883 43.5499 153.08 41.7709 152.109 39.0216L149.09 40.8005C150.438 44.2507 154.104 47 159.495 47C165.263 47 169.252 43.8194 169.252 39.2372C169.252 29.3181 153.511 33.1456 153.511 26.4609Z" fill="white"/>
<path d="M188.42 22.8491V19.3989H180.657V11.8518L177.099 12.9299V19.3989H171.439V22.8491H177.099V39.1833C177.099 45.6523 181.143 47.4313 188.42 46.3531V43.2264C183.191 43.442 180.657 43.8194 180.657 39.1833V22.8491H188.42Z" fill="white"/>
<path d="M205.171 18.752C196.815 18.752 191.101 24.9515 191.101 32.876C191.101 41.0162 196.923 47 205.441 47C210.885 47 215.036 44.4663 217.3 40.8005L214.174 38.9677C212.718 41.5553 209.753 43.5499 205.494 43.5499C199.78 43.5499 195.521 40.1536 194.767 34.655H218.432C218.486 34.1159 218.54 33.5229 218.54 32.9838C218.54 25.5984 213.419 18.752 205.171 18.752ZM205.171 22.2022C209.807 22.2022 214.12 25.2749 214.874 31.2048H194.767C195.467 25.9218 199.511 22.2022 205.171 22.2022Z" fill="white"/>
<path d="M227.758 23.8733V19.3989H224.2V46.3531H227.758V31.3666C227.758 24.6819 228.593 22.4178 232.906 22.4178V18.9677C229.456 18.9677 229.645 20.0997 227.758 23.8733Z" fill="white"/>
<path fill-rule="evenodd" clip-rule="evenodd" d="M140.305 25.814C140.305 27.4852 139.011 28.779 137.34 28.779C135.669 28.779 134.375 27.4852 134.375 25.814C134.375 24.1429 135.669 22.8491 137.34 22.8491C139.011 22.8491 140.305 24.1429 140.305 25.814Z" fill="white"/>
<path fill-rule="evenodd" clip-rule="evenodd" d="M140.199 39.9919C140.199 41.6631 138.905 42.9569 137.234 42.9569C135.563 42.9569 134.269 41.6631 134.269 39.9919C134.269 38.3208 135.563 37.027 137.234 37.027C138.905 37.027 140.199 38.3208 140.199 39.9919Z" fill="white"/>
<g filter="url(#filter0_d)">
<path d="M264.129 46H267.729L263.517 40.636C265.533 37.756 266.685 33.796 266.685 29.8H263.841C263.841 33.22 262.977 36.172 261.753 38.332L255.633 30.448C257.685 30.052 259.377 28 259.377 25.66C259.377 22.528 256.749 20.44 253.797 20.44C250.881 20.44 248.253 22.528 248.253 25.66C248.253 28.072 249.657 29.764 251.601 30.412C248.613 32.428 245.625 34.948 245.625 39.16C245.625 43.336 248.973 46.36 253.761 46.36C257.505 46.36 259.917 44.74 261.501 42.688L264.129 46ZM253.833 43.48C251.169 43.48 248.865 41.464 248.865 38.584C248.865 36.028 250.809 34.084 253.437 32.104L259.737 40.384C258.477 42.256 256.533 43.48 253.833 43.48ZM250.953 25.66C250.953 24.04 252.213 22.78 253.797 22.78C255.381 22.78 256.677 24.076 256.677 25.66C256.677 27.208 255.417 28.504 253.797 28.504C252.213 28.504 250.953 27.208 250.953 25.66Z" fill="white"/>
</g>
<path fill-rule="evenodd" clip-rule="evenodd" d="M551.42 12.535L547.845 8.84821L539.265 17.6965L532.425 10.643C531.464 9.65175 529.906 9.65175 528.945 10.643L528.85 10.7402C527.889 11.7314 527.889 13.3385 528.85 14.3297L535.69 21.3832L527.11 30.2315L530.685 33.9182L539.265 25.07L546.105 32.1235C547.066 33.1147 548.624 33.1147 549.585 32.1235L549.68 32.0262C550.641 31.035 550.641 29.4279 549.68 28.4367L542.84 21.3832L551.42 12.535Z" fill="url(#paint0_linear)"/>
<path fill-rule="evenodd" clip-rule="evenodd" d="M310.257 46.2887V7.33838H313.694V46.2887H310.257ZM293.605 46.9379C291.509 46.9273 289.443 46.4236 287.568 45.4657C285.692 44.5077 284.057 43.1212 282.789 41.4132C281.52 39.7052 280.652 37.7214 280.252 35.6153C279.851 33.5092 279.929 31.337 280.48 29.2667C281.03 27.1963 282.038 25.2832 283.426 23.6752C284.814 22.0672 286.544 20.8074 288.483 19.993C290.422 19.1787 292.518 18.8316 294.609 18.9787C296.7 19.1257 298.73 19.763 300.542 20.8412C302.522 22.0211 304.092 23.8052 305.032 25.9437L302.216 27.5926C301.519 25.9881 300.342 24.6516 298.855 23.7754C297.265 22.8192 295.449 22.3296 293.605 22.3602C292.246 22.3311 290.896 22.5894 289.639 23.1188C288.382 23.6483 287.245 24.4376 286.299 25.4373C284.393 27.4481 283.327 30.1399 283.327 32.9418C283.327 35.7436 284.393 38.4354 286.299 40.4462C287.397 41.6191 288.748 42.5122 290.244 43.0537C291.739 43.5952 293.338 43.7701 294.912 43.5643C296.486 43.3585 297.991 42.7777 299.305 41.8687C300.62 40.9596 301.708 39.7475 302.483 38.3299L305.349 40.0437C304.281 42.1703 302.634 43.9339 300.606 45.1202C298.476 46.3654 296.056 46.9938 293.605 46.9379ZM333.162 46.9446C336.796 46.9446 340.286 45.4935 342.89 42.9001C345.444 40.2452 346.876 36.6682 346.876 32.9418C346.876 29.2153 345.444 25.6383 342.89 22.9834C340.286 20.39 336.796 18.9389 333.162 18.9389C329.529 18.9389 326.039 20.39 323.435 22.9834C320.88 25.6383 319.448 29.2153 319.448 32.9418C319.448 36.6682 320.88 40.2452 323.435 42.9001C326.039 45.4935 329.529 46.9446 333.162 46.9446ZM333.162 43.5204C330.427 43.5204 327.802 42.4157 325.857 40.4462C323.951 38.4354 322.885 35.7437 322.885 32.9418C322.885 30.1399 323.951 27.4482 325.857 25.4373C327.802 23.4678 330.427 22.3632 333.162 22.3632C335.898 22.3632 338.523 23.4678 340.468 25.4373C342.374 27.4482 343.44 30.1399 343.44 32.9418C343.44 35.7437 342.374 38.4354 340.468 40.4462C338.523 42.4157 335.898 43.5204 333.162 43.5204ZM364.768 46.9379C362.672 46.9273 360.606 46.4236 358.731 45.4657C356.855 44.5077 355.22 43.1212 353.952 41.4132C352.683 39.7052 351.815 37.7214 351.415 35.6153C351.014 33.5092 351.092 31.337 351.643 29.2667C352.193 27.1963 353.201 25.2832 354.589 23.6752C355.976 22.0672 357.707 20.8074 359.646 19.993C361.585 19.1787 363.681 18.8316 365.772 18.9787C367.863 19.1257 369.893 19.763 371.705 20.8412C373.685 22.0211 375.255 23.8052 376.195 25.9437L373.379 27.5926C372.682 25.9881 371.505 24.6516 370.018 23.7754C368.432 22.8215 366.62 22.332 364.78 22.3602C363.421 22.3311 362.071 22.5894 360.814 23.1188C359.557 23.6483 358.421 24.4376 357.475 25.4373C355.569 27.4481 354.503 30.1399 354.503 32.9418C354.503 35.7436 355.569 38.4354 357.475 40.4462C358.573 41.6036 359.919 42.4832 361.407 43.0155C362.894 43.5477 364.483 43.7179 366.046 43.5125C367.609 43.3071 369.104 42.7319 370.412 41.8323C371.72 40.9327 372.805 39.7335 373.582 38.3299L376.449 40.0437C375.381 42.1703 373.733 43.9339 371.705 45.1202C369.595 46.3541 367.198 46.982 364.768 46.9379ZM397.895 46.2887H402.486L388.51 32.3964L401.966 19.5817H397.274L384.857 31.3837V8.89637H381.42V46.2887H384.857V33.4221L397.895 46.2887ZM437.415 26.6447C437.406 27.2228 437.546 27.793 437.819 28.2987C438.093 28.8044 438.491 29.2279 438.974 29.5271C440.142 30.2962 441.429 30.8581 442.779 31.1889C444.276 31.5784 445.772 32.0112 447.269 32.4873C448.717 32.9426 450.026 33.7695 451.074 34.8892C452.142 36.0872 452.703 37.6699 452.634 39.2906C452.658 40.3649 452.431 41.4296 451.972 42.3961C451.513 43.3626 450.836 44.203 449.996 44.8475C448.034 46.3416 445.628 47.0981 443.185 46.9898C440.955 47.0495 438.755 46.4548 436.844 45.276C435.177 44.2521 433.885 42.6967 433.166 40.8486L436.083 39.0829C436.561 40.4595 437.494 41.6215 438.721 42.3677C440.098 43.1835 441.672 43.5841 443.261 43.5232C444.751 43.5765 446.228 43.2177 447.535 42.4845C448.089 42.1637 448.543 41.6911 448.848 41.1198C449.153 40.5486 449.296 39.9015 449.26 39.2517C449.269 38.6736 449.129 38.1034 448.855 37.5977C448.582 37.092 448.183 36.6685 447.7 36.3693C446.532 35.6002 445.246 35.0383 443.895 34.7075C442.399 34.318 440.902 33.8852 439.406 33.4091C437.957 32.957 436.646 32.1297 435.601 31.0072C434.532 29.8092 433.971 28.2265 434.041 26.6058C434.029 25.5589 434.251 24.5231 434.691 23.5779C435.131 22.6326 435.776 21.803 436.577 21.1527C438.364 19.6631 440.616 18.884 442.919 18.9585C444.875 18.9143 446.806 19.4219 448.499 20.4257C450.051 21.3484 451.29 22.7347 452.05 24.3986L449.184 26.1124C448.178 23.6196 446.09 22.3732 442.919 22.3732C441.573 22.3462 440.25 22.7255 439.114 23.4638C438.576 23.7872 438.134 24.2538 437.835 24.8139C437.536 25.3741 437.39 26.0068 437.415 26.6447ZM463.655 22.9964H471.163V19.5818H463.693V12.1033L460.243 13.1679V19.5818H454.764V22.9964H460.243V39.1997C460.243 42.2898 461.157 44.3888 462.983 45.4967C464.809 46.6046 467.549 46.873 471.201 46.3017V43.1986C469.536 43.2506 468.145 43.2765 467.029 43.2765C466.564 43.3091 466.097 43.2402 465.66 43.0746C465.223 42.909 464.825 42.6504 464.492 42.3158C463.85 41.4121 463.552 40.2994 463.655 39.1868V22.9964ZM487.41 18.9456C489.177 18.8843 490.935 19.2292 492.555 19.9549C494.175 20.6807 495.615 21.7687 496.77 23.1392C499.129 25.8678 500.405 29.4019 500.346 33.0456C500.346 33.4351 500.313 33.989 500.245 34.7075H477.34C477.455 35.9628 477.811 37.1826 478.387 38.2967C478.964 39.4108 479.75 40.3972 480.701 41.1992C482.69 42.8161 485.175 43.658 487.714 43.5751C489.508 43.6095 491.279 43.1618 492.851 42.2768C494.217 41.5174 495.347 40.3789 496.11 38.992L499.141 40.8097C497.991 42.7038 496.372 44.2534 494.449 45.3019C492.361 46.4352 490.026 47.0071 487.664 46.9638C485.823 47.0464 483.984 46.7436 482.262 46.0739C480.539 45.4042 478.968 44.3816 477.644 43.0688C476.376 41.7488 475.385 40.178 474.731 38.4523C474.077 36.7266 473.773 34.8824 473.839 33.0326C473.788 31.1924 474.099 29.3604 474.752 27.6453C475.406 25.9303 476.389 24.367 477.644 23.0483C478.905 21.7078 480.424 20.6507 482.105 19.9444C483.786 19.238 485.593 18.8979 487.41 18.9456ZM487.41 22.3602C484.94 22.2668 482.528 23.1353 480.66 24.7905C478.791 26.4457 477.605 28.7647 477.34 31.2798H496.808C496.6 28.7555 495.462 26.4066 493.625 24.7102C491.909 23.1657 489.694 22.3283 487.41 22.3602ZM512.606 20.3265C511.137 21.192 509.955 22.4882 509.212 24.0481V19.5818H505.775V46.3277H509.212V31.4746C509.212 28.4192 509.994 26.1773 511.558 24.7492C513.189 23.2977 515.296 22.5322 517.455 22.6069V19.1922C515.765 19.066 514.076 19.461 512.606 20.3265ZM417.553 28.6053C419.157 28.6053 420.458 27.2741 420.458 25.6321C420.458 23.99 419.157 22.6589 417.553 22.6589C415.949 22.6589 414.649 23.99 414.649 25.6321C414.649 27.2741 415.949 28.6053 417.553 28.6053ZM420.458 40.0696C420.458 41.7117 419.157 43.0429 417.553 43.0429C415.949 43.0429 414.649 41.7117 414.649 40.0696C414.649 38.4276 415.949 37.0964 417.553 37.0964C419.157 37.0964 420.458 38.4276 420.458 40.0696Z" fill="white"/>
<defs>
<filter id="filter0_d" x="229.625" y="8.43994" width="54.104" height="57.92" filterUnits="userSpaceOnUse" color-interpolation-filters="sRGB">
<feFlood flood-opacity="0" result="BackgroundImageFix"/>
<feColorMatrix in="SourceAlpha" type="matrix" values="0 0 0 0 0 0 0 0 0 0 0 0 0 0 0 0 0 0 127 0"/>
<feOffset dy="4"/>
<feGaussianBlur stdDeviation="8"/>
<feColorMatrix type="matrix" values="0 0 0 0 0.420833 0 0 0 0 0.420833 0 0 0 0 0.420833 0 0 0 0.4 0"/>
<feBlend mode="normal" in2="BackgroundImageFix" result="effect1_dropShadow"/>
<feBlend mode="normal" in="SourceGraphic" in2="effect1_dropShadow" result="shape"/>
</filter>
<linearGradient id="paint0_linear" x1="534.374" y1="49.2363" x2="529.481" y2="-2.08528" gradientUnits="userSpaceOnUse">
<stop stop-color="#8698FF"/>
<stop offset="1" stop-color="#3150FF"/>
</linearGradient>
</defs>
</svg>
